<svg xmlns="http://www.w3.org/2000/svg" width="24" height="24" fill="none"><path fill="#fff" d="M24 0H0v24h24V0z" opacity=".01"/><path stroke="#FF5959" stroke-linecap="round" stroke-linejoin="round" stroke-miterlimit="10" stroke-width="1.8" d="M20.85 5.7l-6.75 6.75c-1.2 1.2-3 1.2-4.2 0L3.15 5.7"/><path stroke="#475867" stroke-linecap="round" stroke-linejoin="round" stroke-width="1.8" d="M21.6 7.2v9.75c0 1.05-.75 1.8-1.8 1.8H4.2c-.9 0-1.8-.75-1.8-1.8V7.2c0-.6.3-1.05.75-1.35.3-.15.6-.3 1.05-.3h15.75c.45 0 .75.15 1.05.3.3.15.6.75.6 1.35z"/></svg>