<svg xmlns="http://www.w3.org/2000/svg" width="24" height="24" fill="none"><path fill="#475867" stroke="#475867" stroke-linecap="round" stroke-linejoin="round" stroke-width="1.6" d="M12 21.6a9.6 9.6 0 100-19.2 9.6 9.6 0 000 19.2z"/><path fill="#fff" d="M18.15 8.25c-.45.15-.9.3-1.5.45.45-.3.9-.75 1.05-1.35-.45.3-1.05.45-1.65.6-.45-.45-1.05-.75-1.8-.75-1.35 0-2.55 1.2-2.55 2.55v.6c-2.1-.15-3.9-1.05-5.25-2.7-.15.3-.3.75-.3 1.2 0 .9.45 1.65 1.05 2.1-.45 0-.75-.15-1.2-.3 0 1.2.9 2.25 2.1 2.55-.15 0-.45.15-.6.15h-.45c.3 1.05 1.2 1.8 2.4 1.8-.9.75-1.95 1.05-3.15 1.05h-.6c1.05.75 2.4 1.2 3.9 1.2 4.65 0 7.2-3.9 7.2-7.2v-.3c.6-.75 1.05-1.2 1.35-1.65z"/></svg>