<svg xmlns="http://www.w3.org/2000/svg" width="24" height="24" fill="none"><path fill="#fff" d="M23.97.015H.017V23.97H23.97V.015z" opacity=".01"/><path fill="#475867" d="M12 1.5h7.875A2.625 2.625 0 0122.5 4.125V12a10.5 10.5 0 11-21 0A10.5 10.5 0 0112 1.5z"/><path fill="#fff" d="M11.4 17.46a.285.285 0 00.42 0l3.465-4.815.795-1.11a.39.39 0 00-.09-.555.36.36 0 00-.24 0H10.5l1.275-3.87a.316.316 0 00-.195-.39.3.3 0 00-.345.12l-3.45 4.8-.81 1.11a.405.405 0 00.09.555.375.375 0 00.24.075h5.25l-1.275 3.87a.299.299 0 00.12.21z"/></svg>