<svg xmlns="http://www.w3.org/2000/svg" width="24" height="24" fill="none"><path fill="#475867" stroke="#475867" stroke-linecap="round" stroke-linejoin="round" stroke-width="1.6" d="M12 2.4c-5.25 0-9.6 4.35-9.6 9.6 0 2.1.75 4.05 1.8 5.55l-.9 3 3-.9c1.65 1.2 3.45 1.8 5.55 1.8 5.25 0 9.6-4.35 9.6-9.6S17.4 2.4 12 2.4z"/><path fill="#fff" d="M9.3 7.2c-.15-.45-.45-.45-.6-.45h-.6c-.15 0-.45 0-.75.3s-1.05.9-1.05 2.4c0 1.35 1.05 2.7 1.2 2.85.15.15 1.95 3.15 4.8 4.2 2.4.9 2.85.75 3.3.75.45 0 1.65-.75 1.95-1.35.3-.6.3-1.2.15-1.35 0-.15-.3-.15-.6-.3s-1.65-.75-1.95-.9c-.3-.15-.45-.15-.6.15-.15.3-.75.9-.9 1.05-.15.15-.3.15-.6 0s-1.2-.45-2.25-1.35c-.9-.75-1.35-1.65-1.5-1.95-.15-.3 0-.45.15-.6l.45-.45c.15-.15.15-.3.3-.45.15-.15 0-.3 0-.45-.15-.15-.6-1.5-.9-2.1z"/></svg>