<svg xmlns="http://www.w3.org/2000/svg" width="24" height="24" fill="none"><path fill="#fff" d="M24 0H0v24h24V0z" opacity=".01"/><path fill="#fff" d="M24 0H0v24h24V0z" opacity=".01"/><path stroke="#FF5959" stroke-linecap="round" stroke-linejoin="round" stroke-miterlimit="10" stroke-width="1.8" d="M19.2 4.65c1.35.3 2.4 1.5 2.4 2.85v.45c0 1.05-.9 1.95-1.95 1.95H17.7c-1.05 0-1.95-.9-1.95-1.95 0-.15-.15-.3-.3-.3-2.25-.15-4.35-.15-6.6 0-.15 0-.3.15-.3.3C8.55 9 7.65 9.9 6.6 9.9H4.65C3.6 9.9 2.7 9 2.7 7.95V7.5c0-1.35 1.05-2.55 2.4-2.85 4.35-.9 9.15-1.05 14.1 0z"/><path stroke="#475867" stroke-linecap="round" stroke-linejoin="round" stroke-miterlimit="10" stroke-width="1.8" d="M19.35 20.1H4.8c-.45 0-.75-.3-.75-.75 0-4.05 3.3-7.35 7.35-7.35h1.65c4.05 0 7.35 3.3 7.35 7.35-.3.45-.75.75-1.05.75z"/></svg>