<svg xmlns="http://www.w3.org/2000/svg" width="24" height="24" fill="none"><path fill="#fff" d="M23.969.015H.014V23.97h23.955V.015z" opacity=".01"/><path fill="#fff" d="M24 0H0v24h24V0z" opacity=".01"/><path stroke="#2C5CC5" stroke-linecap="round" stroke-linejoin="round" stroke-miterlimit="10" stroke-width="1.8" d="M8.1 14.4l3.9-3.9 3.75 3.9M8.1 20.1l3.9-3.9 3.75 3.9"/><path stroke="#475867" stroke-linecap="round" stroke-linejoin="round" stroke-miterlimit="10" stroke-width="1.8" d="M3.75 16.8C3 16.5 2.4 15.75 2.4 14.85v-2.1c1.2 0 2.25-1.05 2.25-2.25S3.6 8.25 2.4 8.25V6c0-1.2.9-2.1 2.1-2.1h14.85c1.2 0 2.25.9 2.25 2.1v2.25c-1.2 0-2.25 1.05-2.25 2.25s1.05 2.25 2.25 2.25v2.1c0 .9-.6 1.65-1.35 1.95"/></svg>