<svg xmlns="http://www.w3.org/2000/svg" width="24" height="24" fill="none"><path stroke="#475867" stroke-linecap="round" stroke-linejoin="round" stroke-width="1.8" d="M7.95 21.75h-3.6c-1.05 0-1.95-.9-1.95-1.95v-3.6c0-1.05.9-1.95 1.95-1.95h3.6c1.05 0 1.95.9 1.95 1.95v3.6c.15 1.05-.75 1.95-1.95 1.95z"/><path stroke="#2C5CC5" stroke-linecap="round" stroke-linejoin="round" stroke-miterlimit="10" stroke-width="1.8" d="M19.5 10.2h-3.6c-1.05 0-1.95-.9-1.95-1.95v-3.6c0-1.05.9-1.95 1.95-1.95h3.6c1.05 0 1.95.9 1.95 1.95v3.6c.15 1.05-.75 1.95-1.95 1.95z"/><path stroke="#475867" stroke-linecap="round" stroke-linejoin="round" stroke-width="1.8" d="M15.9 21.75h3.6c1.05 0 1.95-.9 1.95-1.95v-3.6c0-1.05-.9-1.95-1.95-1.95h-3.6c-1.05 0-1.95.9-1.95 1.95v3.6c-.15 1.05.9 1.95 1.95 1.95zM4.35 10.2h3.6C9 10.2 9.9 9.3 9.9 8.25v-3.6C9.9 3.6 9 2.7 7.95 2.7h-3.6c-1.05 0-1.95.9-1.95 1.95v3.6c0 1.05.9 1.95 1.95 1.95z"/></svg>