<svg xmlns="http://www.w3.org/2000/svg" width="24" height="24" fill="none"><path fill="#fff" d="M23.97.015H.017V23.97H23.97V.015z" opacity=".01"/><path fill="#fff" d="M24 0H0v24h24V0z" opacity=".01"/><path stroke="#475867" stroke-linecap="round" stroke-linejoin="round" stroke-miterlimit="10" stroke-width="1.6" d="M12 15.6V21m-5.1.6h10.2"/><path stroke="#E86F25" stroke-linecap="round" stroke-linejoin="round" stroke-miterlimit="10" stroke-width="1.6" d="M17.25 4.5h2.85c.75 0 1.5.6 1.5 1.5v1.2c0 2.55-1.95 4.65-4.5 4.8M6.75 4.5H3.9c-.75 0-1.5.6-1.5 1.5v1.2c0 2.55 1.95 4.65 4.5 4.8"/><path stroke="#475867" stroke-linecap="round" stroke-linejoin="round" stroke-miterlimit="10" stroke-width="1.6" d="M12 15.6c-2.85 0-5.1-2.25-5.1-5.1V3.9c0-.75.6-1.5 1.5-1.5h7.35c.75 0 1.5.6 1.5 1.5v6.6c-.15 2.85-2.4 5.1-5.25 5.1z"/></svg>