<svg xmlns="http://www.w3.org/2000/svg" width="24" height="24" fill="none"><path fill="#fff" d="M24 0H0v24h24V0z" opacity=".01"/><path stroke="#475867" stroke-linecap="round" stroke-linejoin="round" stroke-miterlimit="10" stroke-width="1.8" d="M20.4 6.6c0-1.5-1.2-2.7-2.7-2.7H6.15c-1.5 0-2.7 1.2-2.7 2.7v5.85"/><path stroke="#2E8EFA" stroke-linecap="round" stroke-linejoin="round" stroke-miterlimit="10" stroke-width="1.8" d="M12 14.85a2.85 2.85 0 100-5.7 2.85 2.85 0 000 5.7zm0-5.7v-2.1m0 9.9v-2.1M9.15 12h-2.1m9.902 0h-2.1M9.9 14.1l-1.35 1.35m6.902-6.9l-1.35 1.35m0 4.2l1.35 1.35M8.55 8.55L9.9 9.9"/><path stroke="#475867" stroke-linecap="round" stroke-linejoin="round" stroke-miterlimit="10" stroke-width="1.8" d="M3.6 17.4c0 1.5 1.2 2.7 2.7 2.7h11.55c1.5 0 2.7-1.2 2.7-2.7v-5.85"/><path stroke="#475867" stroke-linecap="round" stroke-linejoin="round" stroke-miterlimit="10" stroke-width="1.8" d="M4.8 17.4l-1.2-1.2-1.2 1.2M19.2 6.6l1.2 1.2 1.2-1.2"/></svg>