<svg xmlns="http://www.w3.org/2000/svg" width="24" height="24" fill="none"><path stroke="#475867" stroke-linecap="round" stroke-linejoin="round" stroke-width="1.8" d="M20.1 8.55V19.2c0 1.35-1.2 2.55-2.7 2.55H6.75c-1.5 0-2.7-1.05-2.7-2.55V4.95c0-1.35 1.2-2.55 2.7-2.55h6.75c.6 0 1.05.15 1.5.6l4.5 4.2c.3.3.6.75.6 1.35z"/><path stroke="#527FA5" stroke-linecap="round" stroke-linejoin="round" stroke-miterlimit="10" stroke-width="1.8" d="M7.05 13.35h4.05c.9 0 1.65-.6 1.65-1.5s-.75-1.5-1.65-1.5H8.7c-.9 0-1.65-.6-1.65-1.5s.75-1.5 1.65-1.5h4.05M9.9 6.3v8.1"/><path stroke="#475867" stroke-linecap="round" stroke-linejoin="round" stroke-width="1.8" d="M15.45 10.35h1.5m-1.5 3.75h1.5m-9.9 3.6h9.9"/></svg>