<svg xmlns="http://www.w3.org/2000/svg" width="24" height="24" fill="none"><path stroke="#E86F25" stroke-linecap="round" stroke-linejoin="round" stroke-miterlimit="10" stroke-width="1.8" d="M12 7.35l1.05 2.1 2.4.45-1.65 1.8.3 2.25L12 12.9l-2.25 1.05.3-2.25-1.5-1.8 2.25-.45 1.2-2.1z"/><path stroke="#475867" stroke-linecap="round" stroke-linejoin="round" stroke-miterlimit="10" stroke-width="1.8" d="M6.15 17.7h-1.5c-1.2 0-2.25-1.05-2.25-2.4V6.15c0-1.35 1.05-2.4 2.25-2.4h14.7c1.2 0 2.25 1.05 2.25 2.4v9.15c0 1.35-1.05 2.4-2.25 2.4h-4.5l-4.35 2.25c-.6.3-1.35-.15-1.35-.9V17.7h-3z"/></svg>