<svg xmlns="http://www.w3.org/2000/svg" width="24" height="24" fill="none"><path stroke="#475867" stroke-linecap="round" stroke-linejoin="round" stroke-width="1.8" d="M20.1 8.55V19.2c0 1.35-1.2 2.55-2.7 2.55H6.75c-1.5 0-2.7-1.05-2.7-2.55V4.95c0-1.35 1.2-2.55 2.7-2.55h6.75c.6 0 1.05.15 1.5.6l4.5 4.2c.45.3.6.75.6 1.35z"/><path stroke="#E86F25" stroke-linecap="round" stroke-linejoin="round" stroke-miterlimit="10" stroke-width="1.8" d="M12 8.7l1.2 2.1 2.25.45-1.5 1.65.15 2.4-2.1-1.05-2.1 1.05.15-2.4-1.5-1.65 2.25-.45L12 8.7z"/></svg>