<svg xmlns="http://www.w3.org/2000/svg" width="24" height="24" fill="none"><path fill="#fff" d="M23.97.015H.017V23.97H23.97V.015z" opacity=".01"/><path fill="#fff" d="M24 0H0v24h24V0z" opacity=".01"/><path stroke="#FF5959" stroke-linecap="round" stroke-linejoin="round" stroke-miterlimit="10" stroke-width="1.6" d="M12 5.55V8.1m-.15-2.7a1.5 1.5 0 100-3 1.5 1.5 0 000 3z"/><path stroke="#475867" stroke-linecap="round" stroke-linejoin="round" stroke-miterlimit="10" stroke-width="1.6" d="M15.9 19.8H5.4c-1.65 0-3-1.35-3-3v-5.25c0-1.65 1.35-3 3-3h13.2c1.65 0 3 1.35 3 3v8.7c0 1.2-1.35 1.95-2.25 1.35l-1.8-1.2c-.6-.45-1.05-.6-1.65-.6z" clip-rule="evenodd"/><path fill="#475867" d="M8.55 15.45a1.5 1.5 0 100-3 1.5 1.5 0 000 3zm6.9 0a1.5 1.5 0 100-3 1.5 1.5 0 000 3z"/></svg>