<svg xmlns="http://www.w3.org/2000/svg" viewBox="0 0 81 81"><path fill="#eaeef2" d="M42.34 0C7.43 0-3.8 17 2.4 37.44c7 23.1-6.72 27.1 7.48 38.8 11.84 9.77 32.72-1.8 46.58 3.42 9.48 3.6 23.42-6 24.44-19.88 1-12.7-9.53-13-6.78-27.15C77.4 15.72 77.25 0 42.34 0"/><path fill="#f2f2f2" d="M.8.1H81v80.2H.8z" opacity=".01" style="isolation:isolate"/><g stroke="#97a8af" stroke-width=".8"><path fill="#fff" stroke-linejoin="round" d="M67.64 16.06V69.8a2.08 2.08 0 01-2.09 2.1H20.1a2.1 2.1 0 01-2.1-2.07V16.1a2.1 2.1 0 012.1-2.1h45.45a2.09 2.09 0 012.09 2.06z"/><path fill="#ebeff3" d="M56.62 13.76a3.69 3.69 0 01-3.69 3.69H33.05a3.69 3.69 0 110-7.38h6.65a3.29 3.29 0 016.58 0h6.65a3.69 3.69 0 013.69 3.69z"/></g><path fill="#ced8db" d="M30 13.7a3.88 3.88 0 002.77 1.67H52.6c1 0 3.15-.53 3.45-2.1a3 3 0 01-2.83 3.63c-3.66.26-20.8.06-20.8.06A3.19 3.19 0 0130 13.7z"/><circle cx="42.99" cy="10.45" r="1.36" fill="#fff" stroke="#97a8af" stroke-linejoin="round" stroke-width=".8"/><ellipse cx="19.98" cy="60.56" fill="#97a8af" opacity=".4" rx="11.84" ry="11.6" style="isolation:isolate"/><g stroke="#97a8af" stroke-width=".8"><circle cx="18.09" cy="60.56" r="11.24" fill="#fff"/><path fill="none" stroke-linecap="round" d="M21.8 64.66a5.24 5.24 0 01-7.42 0"/></g><g fill="#97a8af"><circle cx="13.51" cy="59.47" r="1.55"/><circle cx="22.68" cy="59.47" r="1.55"/></g><path fill="#dce1e5" d="M66.66 55.07v9.2h-30a1.61 1.61 0 01-1.6-1.61v-6a1.61 1.61 0 011.6-1.61z"/><rect width="38.33" height="9.2" x="37.31" y="52.66" fill="#fff" stroke="#97a8af" stroke-linejoin="round" stroke-width=".8" rx="1.6"/><path fill="#97a8af" d="M43.23 54.53l-.38 1.2a.43.43 0 01-.4.29H41.2a.43.43 0 00-.47.3.42.42 0 00.22.5l1 .74a.4.4 0 01.15.47l-.4 1.14a.43.43 0 00.16.47.42.42 0 00.49 0l1-.74a.4.4 0 01.49 0l1 .74a.44.44 0 00.5 0 .42.42 0 00.15-.47L45.13 58a.4.4 0 01.15-.47l1-.74a.42.42 0 00.22-.5.43.43 0 00-.5-.29h-1.2a.43.43 0 01-.4-.29l-.4-1.18a.43.43 0 00-.8 0zm6.43 0l-.4 1.2a.42.42 0 01-.4.29h-1.25a.44.44 0 00-.47.3.43.43 0 00.22.5l1 .74a.42.42 0 01.16.47l-.42 1.14a.43.43 0 00.65.48l1-.74a.41.41 0 01.49 0l1 .74a.42.42 0 00.49 0 .43.43 0 00.16-.47L51.54 58a.42.42 0 01.16-.47l1-.74a.41.41 0 00.21-.5.42.42 0 00-.46-.3h-1.2a.43.43 0 01-.4-.29l-.4-1.15a.42.42 0 00-.79 0zm6.42 0l-.38 1.2a.43.43 0 01-.4.29h-1.25a.43.43 0 00-.47.3.42.42 0 00.22.5l1 .74a.4.4 0 01.2.45l-.4 1.18a.43.43 0 00.16.47.42.42 0 00.49 0l1-.74a.4.4 0 01.49 0l1 .74a.44.44 0 00.5 0 .42.42 0 00.15-.47L58 58a.42.42 0 01.15-.47l1-.74a.42.42 0 00.22-.5.43.43 0 00-.47-.3h-1.24a.41.41 0 01-.39-.29l-.4-1.2a.43.43 0 00-.8 0zm6.43 0l-.4 1.2a.41.41 0 01-.4.29h-1.25a.43.43 0 00-.47.3.42.42 0 00.22.5l1 .74a.4.4 0 01.15.47L61 59.2a.43.43 0 00.65.48l1-.74a.41.41 0 01.49 0l1 .74a.42.42 0 00.49 0 .43.43 0 00.16-.47l-.37-1.2a.43.43 0 01.16-.47l1-.74a.41.41 0 00.21-.5.42.42 0 00-.46-.3H64.1a.43.43 0 01-.4-.29l-.4-1.2a.42.42 0 00-.4-.28.4.4 0 00-.39.28zm6.46 0l-.38 1.2a.42.42 0 01-.41.29h-1.3a.42.42 0 00-.46.3.41.41 0 00.21.5l1 .74a.42.42 0 01.15.47l-.4 1.18a.43.43 0 00.16.47.42.42 0 00.49 0l1-.74a.4.4 0 01.49 0l1 .74a.44.44 0 00.5 0 .42.42 0 00.15-.47l-.34-1.2a.41.41 0 01.15-.47l1-.74a.42.42 0 00.22-.5.43.43 0 00-.47-.3H70.5a.41.41 0 01-.39-.29l-.4-1.2a.4.4 0 00-.37-.23.43.43 0 00-.38.23z"/><path fill="#fff" stroke="#91a2b2" stroke-width=".8" d="M41.26 25.07L33 39.77a1.72 1.72 0 000 1.7 1.75 1.75 0 001.47.85H51a1.75 1.75 0 001.47-.85 1.72 1.72 0 000-1.7l-8.28-14.7a1.72 1.72 0 00-3 0z"/><path fill="#dfe7ea" d="M50.7 41.4l-15.7.1c-.63 0-1.38-.4-1.23-1.12a.9.9 0 01.08-.25h17.83l.08.16s.4 1.1-1.07 1.1z"/><path fill="none" stroke="#91a2b2" stroke-width=".8" d="M42.88 30.76v4.53"/><circle cx="42.88" cy="38.07" r="1.03" fill="#91a2b2"/></svg>