<svg xmlns="http://www.w3.org/2000/svg" width="24" height="24" fill="none"><path stroke="#475867" stroke-linecap="round" stroke-linejoin="round" stroke-width="1.8" d="M3.9 19.95V4.05c0-.9.75-1.65 1.65-1.65h12.9c.9 0 1.65.75 1.65 1.65v15.9c0 .9-.75 1.65-1.65 1.65H5.55c-.9 0-1.65-.75-1.65-1.65z"/><path stroke="#527FA5" stroke-linecap="round" stroke-linejoin="round" stroke-miterlimit="10" stroke-width="1.8" d="M13.8 9.75c-.45.45-1.05.75-1.8.75s-1.35-.3-1.8-.75c-1.5 0-2.55 1.2-2.55 2.7v.9c0 .45.45.9.9.9h6.9c.45 0 .9-.45.9-.9v-.9c0-1.5-1.2-2.7-2.55-2.7z"/><path stroke="#527FA5" stroke-linecap="round" stroke-linejoin="round" stroke-miterlimit="10" stroke-width="1.8" d="M12 10.5a2.55 2.55 0 100-5.1 2.55 2.55 0 000 5.1z"/><path stroke="#475867" stroke-linecap="round" stroke-linejoin="round" stroke-width="1.8" d="M7.65 17.55h8.7"/></svg>