<svg xmlns="http://www.w3.org/2000/svg" width="24" height="24" fill="none"><path stroke="#475867" stroke-linecap="round" stroke-linejoin="round" stroke-width="1.8" d="M21.15 9.75c.3.3.45.75.45 1.2v8.7c0 1.05-.9 1.95-1.95 1.95H4.35c-1.05 0-1.95-.9-1.95-1.95v-8.7c0-.45.15-.9.6-1.35"/><path stroke="#475867" stroke-linecap="round" stroke-linejoin="round" stroke-width="1.8" d="M20.85 9.9l-7.65 5.55c-.75.45-1.65.45-2.25 0L3.15 9.9"/><path stroke="#2E8EFA" stroke-linecap="round" stroke-linejoin="round" stroke-miterlimit="10" stroke-width="1.8" d="M12 9.15v-3.9"/><path stroke="#475867" stroke-linecap="round" stroke-linejoin="round" stroke-width="1.8" d="M4.05 10.35V4.5c0-1.2.9-2.1 2.1-2.1H17.7c1.2 0 2.1.9 2.1 2.1v5.85"/><path fill="#2E8EFA" d="M12 12.75a.9.9 0 100-1.8.9.9 0 000 1.8z"/></svg>