<svg xmlns="http://www.w3.org/2000/svg" width="24" height="24" fill="none"><path fill="#fff" d="M24 0H0v24h24V0z" opacity=".01"/><path fill="#fff" d="M24 0H0v24h24V0z" opacity=".01"/><path stroke="#FF5959" stroke-linecap="round" stroke-miterlimit="10" stroke-width="1.6" d="M16.5 21.6a5.1 5.1 0 100-10.2 5.1 5.1 0 000 10.2z"/><path stroke="#FF5959" stroke-linecap="round" stroke-linejoin="round" stroke-miterlimit="10" stroke-width="1.6" d="M16.5 14.55v-.15m0 4.35v-1.5"/><path stroke="#475867" stroke-linecap="round" stroke-linejoin="round" stroke-miterlimit="10" stroke-width="1.6" d="M6.9 18.6H4.5c-1.05 0-2.1-.9-2.1-2.1v-12c0-1.05.9-2.1 2.1-2.1h12c1.05 0 2.1.9 2.1 2.1v2.55M6 6.9h7.95M6 11.4h3.6"/></svg>