<svg xmlns="http://www.w3.org/2000/svg" width="24" height="24" fill="none"><path fill="#fff" d="M24 0H0v24h24V0z" opacity=".01"/><path fill="#fff" d="M24 0H0v24h24V0z" opacity=".01"/><path stroke="#2C5CC5" stroke-linecap="round" stroke-linejoin="round" stroke-miterlimit="10" stroke-width="1.8" d="M17.55 21.3l-3.3-3.3c-2.4 1.05-5.25.6-7.2-1.35-1.95-1.95-2.4-4.8-1.35-7.2l4.35 4.35 3.45-3.45L9.15 6c2.4-1.05 5.25-.6 7.2 1.35 1.95 1.95 2.4 4.8 1.35 7.2L21.15 18"/><path stroke="#475867" stroke-linecap="round" stroke-linejoin="round" stroke-miterlimit="10" stroke-width="1.8" d="M21.6 4.5v14.85c0 1.2-1.05 2.1-2.25 2.1H4.5c-1.2 0-2.25-.9-2.25-2.1V4.5c0-1.2 1.05-2.25 2.25-2.25h14.85C20.7 2.4 21.6 3.3 21.6 4.5z"/></svg>