<svg xmlns="http://www.w3.org/2000/svg" width="24" height="24" fill="none"><path fill="#fff" d="M24 0H0v24h24V0z" opacity=".01"/><path fill="#fff" d="M24 0H0v24h24V0z" opacity=".01"/><path stroke="#475867" stroke-linecap="round" stroke-linejoin="round" stroke-miterlimit="10" stroke-width="1.8" d="M8.55 21.6H3.9c-.9 0-1.5-.6-1.5-1.5V7.8c0-.45.15-.75.45-1.05l4.35-3.9c.3-.3.6-.45 1.05-.45h8.85c.9 0 1.5.6 1.5 1.5v3"/><path stroke="#527FA5" stroke-linecap="round" stroke-miterlimit="10" stroke-width="1.8" d="M16.5 21.6a5.1 5.1 0 100-10.2 5.1 5.1 0 000 10.2zm0-7.05v-.15m0 4.35v-1.5"/></svg>