<svg xmlns="http://www.w3.org/2000/svg" width="24" height="24" fill="none"><path fill="#fff" d="M0 0h24v24H0V0z" opacity=".01"/><path fill="#fff" d="M24 0H0v24h24V0z" opacity=".01"/><path stroke="#475867" stroke-linecap="round" stroke-linejoin="round" stroke-miterlimit="10" stroke-width="1.8" d="M12.3 14.85c.75.75 1.65 1.05 2.7 1.05 1.05 0 1.95-.45 2.7-1.05 2.1 0 3.9 1.8 3.9 4.05v1.35c0 .75-.6 1.35-1.35 1.35H9.75C9 21.6 8.4 21 8.4 20.25V18.9c0-2.1 1.8-3.9 3.9-4.05z"/><path stroke="#475867" stroke-linecap="round" stroke-linejoin="round" stroke-miterlimit="10" stroke-width="1.8" d="M15 15.9a3.75 3.75 0 100-7.5 3.75 3.75 0 000 7.5z"/><path stroke="#00A886" stroke-linecap="round" stroke-linejoin="round" stroke-miterlimit="10" stroke-width="1.8" d="M9.6 7.35c-.6.6-1.35.9-2.1.9s-1.5-.3-2.1-.9c-1.65 0-3 1.5-3 3.15v1.05c0 .6.45 1.05 1.05 1.05H6.3"/><path stroke="#00A886" stroke-linecap="round" stroke-linejoin="round" stroke-miterlimit="10" stroke-width="1.8" d="M7.5 8.4a3 3 0 100-6 3 3 0 000 6z"/></svg>