<svg xmlns="http://www.w3.org/2000/svg" width="24" height="24" fill="none"><path fill="#fff" d="M24 0H0v24h24V0z" opacity=".01"/><path fill="#fff" d="M24 0H0v24h24V0z" opacity=".01"/><path stroke="#475867" stroke-linecap="round" stroke-linejoin="round" stroke-width="1.8" d="M12.9 21.6h4.35c1.2 0 2.1-.9 2.1-2.1v-1.65M5.7 17.7h-.3c-1.65 0-3-1.35-3-3v-1.5c0-1.65 1.35-3 3-3h.3v7.5zm12.6 0h.3c1.65 0 3-1.35 3-3v-1.5c0-1.65-1.35-3-3-3h-.3v7.5zM4.35 10.05C4.35 5.85 7.8 2.4 12 2.4s7.65 3.45 7.65 7.65"/><path stroke="#2C5CC5" stroke-linecap="round" stroke-linejoin="round" stroke-miterlimit="10" stroke-width="1.8" d="M12 18v-1.35m0-6.15v1.35m-2.7 5.1l1.05-1.05m4.35-4.35l-1.05 1.05M9.3 11.55l1.05 1.05m4.35 4.35l-1.05-1.05m-5.4-1.65H9.6m6.15 0H14.4M12 16.5a2.25 2.25 0 100-4.5 2.25 2.25 0 000 4.5z"/></svg>