<svg xmlns="http://www.w3.org/2000/svg" width="24" height="24" fill="none"><path fill="#fff" d="M24 0H0v24h24V0z" opacity=".01"/><path fill="#fff" d="M24 0H0v24h24V0z" opacity=".01"/><path stroke="#475867" stroke-linecap="round" stroke-linejoin="round" stroke-miterlimit="10" stroke-width="1.8" d="M8.4 21.6h-3c-1.65 0-3-1.35-3-3V5.4c0-1.65 1.35-3 3-3h13.2c1.65 0 3 1.35 3 3v3.3M2.4 6.9h19.2"/><path stroke="#FF5959" stroke-linecap="round" stroke-linejoin="round" stroke-miterlimit="10" stroke-width="1.8" d="M16.5 21.6a5.1 5.1 0 100-10.2 5.1 5.1 0 000 10.2zm0-5.25v2.4"/><path fill="#FF5959" d="M16.5 15a.9.9 0 100-1.8.9.9 0 000 1.8z"/></svg>