<svg xmlns="http://www.w3.org/2000/svg" width="24" height="24" fill="none"><path fill="#fff" d="M24 0H0v24h24V0z" opacity=".01"/><path fill="#fff" d="M24 0H0v24h24V0z" opacity=".01"/><path stroke="#475867" stroke-linecap="round" stroke-linejoin="round" stroke-miterlimit="10" stroke-width="1.8" d="M14.1 14.1l2.1 2.1M7.5 7.5l2.4 2.4M5.4 8.4a3 3 0 100-6 3 3 0 000 6zm13.2 13.2a3 3 0 100-6 3 3 0 000 6zm-8.7-7.5l-2.1 2.1m8.7-8.7l-1.95 1.95M18.6 8.4a3 3 0 100-6 3 3 0 000 6zM5.4 21.6a3 3 0 100-6 3 3 0 000 6z"/><path stroke="#2C5CC5" stroke-linecap="round" stroke-linejoin="round" stroke-miterlimit="10" stroke-width="1.8" d="M12 15a3 3 0 100-6 3 3 0 000 6z"/></svg>