<svg xmlns="http://www.w3.org/2000/svg" data-name="Layer 1" viewBox="0 0 58 58"><path fill="#fff" d="M50.38.5H29A28.49 28.49 0 00.5 29a28.5 28.5 0 0057 0V7.62A7.12 7.12 0 0050.38.5zM42.08 35a4.37 4.37 0 01-3.28 4.23v.37a5.23 5.23 0 01-5.23 5.23h-3.93a.66.66 0 110-1.31h4a3.93 3.93 0 003.92-3.94v-.21h-3.49V29.18h5.1v-2.92a10.19 10.19 0 00-20.38 0v2.93h5.1v10.19h-3.64A4.37 4.37 0 0115.89 35v-8.84A13 13 0 0129 13.17a13.07 13.07 0 0113 13.09zm8.86-22.39H48v3a1.21 1.21 0 11-2.41 0v-3h-3a1.21 1.21 0 010-2.41h3v-3a1.21 1.21 0 012.41 0v3h3a1.21 1.21 0 110 2.41z"/></svg>