<svg xmlns="http://www.w3.org/2000/svg" width="24" height="24" fill="none"><path stroke="#2E8EFA" stroke-linecap="round" stroke-linejoin="round" stroke-miterlimit="10" stroke-width="1.8" d="M12 15a3 3 0 100-6 3 3 0 000 6z"/><path stroke="#475867" stroke-linecap="round" stroke-linejoin="round" stroke-miterlimit="10" stroke-width="1.8" d="M12 5.4a1.5 1.5 0 100-3 1.5 1.5 0 000 3zm0 16.2a1.5 1.5 0 100-3 1.5 1.5 0 000 3zm8.1-8.1a1.5 1.5 0 100-3 1.5 1.5 0 000 3zm-16.2 0a1.5 1.5 0 100-3 1.5 1.5 0 000 3zm13.8 5.7a1.5 1.5 0 100-3 1.5 1.5 0 000 3zM6.3 7.8a1.5 1.5 0 100-3 1.5 1.5 0 000 3zm0 11.4a1.5 1.5 0 100-3 1.5 1.5 0 000 3zM17.7 7.8a1.5 1.5 0 100-3 1.5 1.5 0 000 3z"/></svg>