<svg xmlns="http://www.w3.org/2000/svg" width="24" height="24" fill="none"><path fill="#fff" d="M24 0H0v24h24V0z" opacity=".01"/><path fill="#fff" d="M24 0H0v24h24V0z" opacity=".01"/><path stroke="#2E8EFA" stroke-linecap="round" stroke-linejoin="round" stroke-miterlimit="10" stroke-width="1.6" d="M13.8 10.5l-3.75 3.75h3.9L10.05 18"/><path stroke="#475867" stroke-linecap="round" stroke-linejoin="round" stroke-width="1.6" d="M12.9 21.6h4.35c1.2 0 2.1-.9 2.1-2.1v-1.65M5.7 17.7h-.3c-1.65 0-3-1.35-3-3v-1.5c0-1.65 1.35-3 3-3h.3v7.5zm12.6 0h.3c1.65 0 3-1.35 3-3v-1.5c0-1.65-1.35-3-3-3h-.3v7.5zM4.35 10.05C4.35 5.85 7.8 2.4 12 2.4s7.65 3.45 7.65 7.65"/></svg>