<svg xmlns="http://www.w3.org/2000/svg" width="24" height="24" fill="none"><path fill="#fff" d="M24 0H0v24h24V0z" opacity=".01"/><path fill="#fff" d="M24 0H0v24h24V0z" opacity=".01"/><path stroke="#475867" stroke-linecap="round" stroke-linejoin="round" stroke-width="1.8" d="M15.45 17.1c.45.45 1.05.75 1.8.75s1.35-.3 1.8-.75c1.5 0 2.55 1.2 2.55 2.7v.9c0 .45-.45.9-.9.9h-6.9c-.45 0-.9-.45-.9-.9v-.9c0-1.35 1.2-2.55 2.55-2.7z"/><path stroke="#475867" stroke-linecap="round" stroke-linejoin="round" stroke-width="1.8" d="M17.251 17.85a2.55 2.55 0 100-5.1 2.55 2.55 0 000 5.1zM4.95 6.75c.45.45 1.05.75 1.8.75s1.35-.3 1.8-.75c1.5 0 2.55 1.2 2.55 2.7v.9c0 .45-.45.9-.9.9H3.3c-.45 0-.9-.45-.9-.9v-.9c0-1.5 1.2-2.7 2.55-2.7z"/><path stroke="#475867" stroke-linecap="round" stroke-linejoin="round" stroke-width="1.8" d="M6.751 7.5a2.55 2.55 0 100-5.1 2.55 2.55 0 000 5.1z"/><path stroke="#00A886" stroke-linecap="round" stroke-linejoin="round" stroke-miterlimit="10" stroke-width="1.8" d="M13.95 5.55H15c1.2 0 2.25 1.05 2.25 2.25v1.95"/><path stroke="#00A886" stroke-linecap="round" stroke-linejoin="round" stroke-miterlimit="10" stroke-width="1.8" d="M16.2 8.7l1.2 1.2 1.2-1.2m-8.55 9.45H9c-1.2 0-2.25-1.05-2.25-2.25v-1.95"/><path stroke="#00A886" stroke-linecap="round" stroke-linejoin="round" stroke-miterlimit="10" stroke-width="1.8" d="M7.8 15l-1.2-1.2L5.4 15"/></svg>