<svg xmlns="http://www.w3.org/2000/svg" width="24" height="24" fill="none"><path fill="#fff" d="M24 0H0v24h24V0z" opacity=".01"/><path fill="#fff" d="M24 0H0v24h24V0z" opacity=".01"/><path stroke="#2E8EFA" stroke-linecap="round" stroke-miterlimit="10" stroke-width="1.8" d="M20.25 16.35l1.35 5.25-2.4-1.05c-.3-.15-.75-.15-1.2 0l-2.4 1.05 1.35-5.1"/><path stroke="#475867" stroke-linecap="round" stroke-linejoin="round" stroke-miterlimit="10" stroke-width="1.8" d="M10.95 21.6H3.9c-.9 0-1.5-.6-1.5-1.5V7.95c0-.45.15-.75.45-1.05L7.2 2.85c.3-.3.6-.45 1.05-.45h8.85c.75 0 1.5.6 1.5 1.5v1.65"/><path stroke="#2E8EFA" stroke-linecap="round" stroke-miterlimit="10" stroke-width="1.8" d="M18.6 16.2a3 3 0 100-6 3 3 0 000 6z"/></svg>