<svg xmlns="http://www.w3.org/2000/svg" width="24" height="24" fill="none"><path stroke="#475867" stroke-linecap="round" stroke-linejoin="round" stroke-width="1.8" d="M21.3 12.3l-8.85 8.85c-.15.15-.45.3-.75.3H4.2c-1.05 0-1.95-.9-1.95-1.95V12c0-.3.15-.45.3-.75L11.4 2.4c.3-.45 1.05-.45 1.35 0l.9.9 7.5 7.5c.6.6.6 1.2.15 1.5z"/><path fill="#475867" d="M5.85 18.75a1.5 1.5 0 100-3 1.5 1.5 0 000 3z"/><path stroke="#E86F25" stroke-linecap="round" stroke-linejoin="round" stroke-miterlimit="10" stroke-width="1.8" d="M11.4 6.45l6.15 6.15"/></svg>