<svg xmlns="http://www.w3.org/2000/svg" width="24" height="24" fill="none"><path fill="#fff" d="M24 0H0v24h24V0z" opacity=".01"/><path fill="#fff" d="M24 0H0v24h24V0z" opacity=".01"/><path stroke="#475867" stroke-linecap="round" stroke-linejoin="round" stroke-miterlimit="10" stroke-width="1.6" d="M17.1 19.2v.75c0 .9-.75 1.65-1.65 1.65h-2.7c0-1.2-1.05-2.25-2.25-2.25S8.25 20.4 8.25 21.6h-2.7c-.9 0-1.65-.75-1.65-1.65V4.05c0-.9.75-1.65 1.65-1.65h2.7c0 1.2 1.05 2.25 2.25 2.25s2.25-1.05 2.25-2.25h2.7c.9 0 1.65.75 1.65 1.65v.75"/><path stroke="#2E8EFA" stroke-linecap="round" stroke-linejoin="round" stroke-miterlimit="10" stroke-width="1.6" d="M20.1 14.4h-9m9-4.8h-9"/></svg>