<svg xmlns="http://www.w3.org/2000/svg" width="24" height="24" fill="none"><path fill="#fff" d="M24 0H0v24h24V0z" opacity=".01"/><path fill="#fff" d="M24 0H0v24h24V0z" opacity=".01"/><path stroke="#475867" stroke-linecap="round" stroke-linejoin="round" stroke-miterlimit="10" stroke-width="1.8" d="M6.75 21.6H3.9c-.9 0-1.5-.6-1.5-1.5V7.95c0-.45.15-.75.45-1.05L7.2 2.85c.3-.3.6-.45 1.05-.45h8.85c.9 0 1.5.6 1.5 1.5v5.7"/><path stroke="#E86F25" stroke-linecap="round" stroke-linejoin="round" stroke-miterlimit="10" stroke-width="1.8" d="M11.85 16.95c.45.6.6 1.35.3 1.95-.15.3-.3.45-.6.6l-.15.15v.9c0 .3.15.6.3.75.15.15.45.3.6.3h8.4c.45 0 .9-.45.9-1.05v-.9l-.15-.15c-.75-.45-.9-1.5-.6-2.25.15-.3.3-.45.6-.6l.15-.15v-.9c0-.3-.15-.6-.3-.75-.15-.15-.45-.3-.6-.3h-8.4c-.45 0-.9.45-.9 1.05v.9l.15.15c.15 0 .3.15.3.3zM15.6 18h1.8"/></svg>