<svg id="Layer_1" data-name="Layer 1" xmlns="http://www.w3.org/2000/svg" viewBox="0 0 20 20"><defs><style>.cls-1{fill:#12344d;}</style></defs><title>User Fill</title><path class="cls-1" d="M10,2A2,2,0,1,1,8,4a2,2,0,0,1,2-2m0-2a4,4,0,1,0,4,4,4,4,0,0,0-4-4Z"/><path class="cls-1" d="M16.5,20H3.5a1,1,0,0,1-.74-.33,1,1,0,0,1-.26-.77l.44-4.53A6.07,6.07,0,0,1,9.12,9h1.76a6.07,6.07,0,0,1,6.18,5.37l.44,4.53a1,1,0,0,1-.26.77A1,1,0,0,1,16.5,20ZM4.6,18H15.4l-.33-3.44A4.08,4.08,0,0,0,10.88,11H9.12a4.08,4.08,0,0,0-4.19,3.56Z"/></svg>