<svg xmlns="http://www.w3.org/2000/svg" width="24" height="24" fill="none"><path fill="#fff" d="M24 0H0v24h24V0z" opacity=".01"/><path fill="#fff" d="M24 0H0v24h24V0z" opacity=".01"/><path stroke="#475867" stroke-linecap="round" stroke-linejoin="round" stroke-miterlimit="10" stroke-width="1.8" d="M16.65 14.7h1.2c2.1 0 3.75-1.65 3.75-3.75 0-1.95-1.5-3.6-3.45-3.6C17.55 4.5 15 2.4 12 2.4c-3.45 0-6.15 2.7-6.3 6.15V9h-.45c-1.05 0-2.1.45-2.55 1.35-.45.9-.6 2.1 0 3 .6.9 1.5 1.5 2.55 1.35H7.2"/><path stroke="#527FA5" stroke-linecap="round" stroke-miterlimit="10" stroke-width="1.8" d="M11.85 21V10.8M15 18.6l-3 3-3-3"/></svg>